<svg id="visual" viewBox="0 0 960 540" width="960" height="540" xmlns="http://www.w3.org/2000/svg" xmlns:xlink="http://www.w3.org/1999/xlink" version="1.1"><rect x="0" y="0" width="960" height="540" fill="#ffe6d7"></rect><g transform="translate(493.80950083776946 293.51618480456443)"><path d="M104.8 -146.4C132.4 -124.2 148.9 -89 167.2 -50.2C185.5 -11.4 205.4 30.9 191.1 58.1C176.7 85.2 128 97.2 90.5 113.9C52.9 130.5 26.5 151.7 -0.2 152C-26.8 152.3 -53.7 131.6 -79.8 111.2C-106 90.9 -131.5 70.9 -160.8 38.6C-190.2 6.2 -223.5 -38.6 -223.6 -83.3C-223.7 -127.9 -190.6 -172.4 -147.8 -189.6C-105 -206.9 -52.5 -196.9 -7 -187.4C38.6 -177.8 77.2 -168.6 104.8 -146.4" fill="#ffffff"></path></g></svg>